# xmcd
#
# Track frame offsets: 
#        150
#        21165
#        53462
#        76825
#        99820
#        122130
#        158635
#        186582
#        213000
#
# Disc length: 3124 seconds
#
# Revision: 0
# Processed by: cddbd v1.4PL0 Copyright (c) Steve Scherf et al.
# Submitted via: ExactAudioCopy v0.90b3
#
DISCID=630c3209
DTITLE=Frank Grace and the Detonators - Witness
DYEAR=1997
DGENRE=Blues
TTITLE0=High Cost of the Low Down
TTITLE1=Witness
TTITLE2=Critters Shuffle
TTITLE3=Hot Dawg Soup
TTITLE4=Grand Central Serenade
TTITLE5=Contrition
TTITLE6=St. Valentines Massacre
TTITLE7=Lottsa Poppa
TTITLE8=Oh Babe
EXTD=
EXTT0=
EXTT1=
EXTT2=
EXTT3=
EXTT4=
EXTT5=
EXTT6=
EXTT7=
EXTT8=
PLAYORDER=
